<mxfile host="app.diagrams.net" modified="2022-07-27T16:02:30.839Z" agent="5.0 (Windows NT 10.0; Win64; x64) AppleWebKit/537.36 (KHTML, like Gecko) Chrome/103.0.5060.134 Safari/537.36 Edg/103.0.1264.71" etag="4ZglosaUxnXWH83xUv2X" version="20.2.1" type="github">
  <diagram id="kgpKYQtTHZ0yAKxKKP6v" name="Page-1">
    <mxGraphModel dx="1422" dy="795" grid="1" gridSize="10" guides="1" tooltips="1" connect="1" arrows="1" fold="1" page="1" pageScale="1" pageWidth="850" pageHeight="1100" math="0" shadow="0">
      <root>
        <mxCell id="0" />
        <mxCell id="1" parent="0" />
        <mxCell id="rfn4uJVFMArDV8O9V4xS-1" value="" style="shape=image;verticalLabelPosition=bottom;labelBackgroundColor=default;verticalAlign=top;aspect=fixed;imageAspect=0;image=data:image/png,iVBORw0KGgoAAAANSUhEUgAAAf8AAAFdCAYAAAANJWRbAAAABGdBTUEAALGPC/xhBQAAAAlwSFlzAAAOwQAADsEBuJFr7QAAc/pJREFUeF7tnYdbE8v/tt9/Kl/0HPWIgmKXrlSlSUdUbMeG/dhARQG7oqKioqgoiAUFFDtFBUQEAZFeQi+/553ZJBjIEBcMNZ/nuu4Lstmd3Wwme89sNrP/jwUEQRAEQUxstMMe951AoVAoFAplYoXkT6FQKBSKkYXkT6FQKBSKkYXkT6FQKBSKkYXkT6FQKBSKkYXkT6FQKBSKkcVo5d/e3o6LMTE4e+YMQRAEYcRwF3AnGFOMVv4vX76EiUIBNzd3giAIwojhLuBOMKYYr/xfvMCihYtwNCJSh5UrV8HT04sgCIIYh/y7aYvw2D4Q3AXcCcYUkn+/SnD4yDGpFRgdFUUQBEGMM4JXroTF7Nk6x3Z9kPxJ/gg/HIG/Jk1Sz0WhUCiU8ZSsrCzMmztP59iuD5I/yZ/kT6FQKOM4JH95Ifn3qwQkfwqFQhm/IfnLC8m/XyUg+VMoFMr4DclfXkj+/SoByZ9CoVDGb0j+8kLy71cJSP4UCoUyfkPylxeSf79KQPKnUCiU8RuSv7yQ/PtVApL/2Ep3+RskJiQgoZdkfKjsUT+rP005yUgt7FQ/4mnBl7RMfO9SPzRAempz8fxdhfrR0KJbRjfKXyfi3p07uJeYjCevCtGgfsnKXPa4YGwMQ9pZ/ArP8xqg2rQe1OQ+RsqHImQnP4a0iT3taO+QntRNTy1yn71TPxip9KB9wA3qm572dnRAiVzNa6GMm5D85WUE5N+MNxd24Vxmo/rx4NP9NQq2k1YhqU09ofUrHkbvwr/rNuFA7FvUyHNBn5D8x0da7wbAdMnWX4N4RMcg9Xu3+ll96cLnUAXmRjeoH7N0FyPK1g1Xm9SPDZCONztgvSpJ/Who0S2jFbd9/4HrzmicijqMPcG2mON4DO+be1B1by8OP2lWzze6abjiBauDuWxP96D62W442G5GUmkFEveG42lzO9JCPRCePUBLq+MNdlquUj8YmbQ/D4VXWDbb3t+k/Tm2e4Qhp6NK/VrU0ynjIiR/eRl++fdU44rXX3CPKVP3EFjaq1GYk4uiWtYKZ/+XFNdAalw3/0RRmaqR0F5diJzcIvBZur9EwEYRhPtq+Xd/S8CRsPO4tN8dM03scOzj4LtyJP/xkda7gViwPRPa/feeqic4cS4TksO78hAfdZf904rCu2FY7++NgLVhuF/UIpa/tTXWH9mIwKDNOJtZw+pkB4ru7obPUju4hkThRTWvpf3L6kBPTSrOnTiFwyEbcSmnBcXJEdgUvBp7dq/Agn7yby28i/B1/vDxW4vwxCK01TzFmVOXcS40CAEh4UiWTj106SmDyd9vIfa+07zqJjzbPA9esRWovLsLBx83o7ssBeHBHvD03YST6ZXsdfSg4lE4Vro6w39HLD7wj1FHEe7t9oajnQvWRmWg8qdgv3VXIO3kFgT7s+24mo2GHtaDTz2Lk6fCsXbDCcREnUJaHd8n3Si6cwIJhb8+ayr5Z6Pi6S44OuzA45+sUdZTiXu7DuDRx3gEmyrY64rFJ62PZ1dxMo5tDMaa3Wyfz1PJv7siDae2sH2zejeuZTegi+2vs6f5/grGqtBYvHoTh93BAdh48iVq2aZ0FN3FHu+lsHcJQXRGNXp6apB6+hRiz4Yi2C8Eh5O/81JRlhKGVR7u8N90Auk/CnEryBQmbJ2xGY+13suGfu91K4rigzBTMQ9rLqchgb0W3taSt07KWAjJX15GXv5NGThguwDLg31gOcsNZ5+ewvLpAbhR3YkvUU6Ys/kRm2U/7Be4YrXPIli4nUN+Xl/5a9L2cjcW/LUc54vl9AT7huQ/PsJ7/n/NcICvry/8OIGRyGjKQdiSANxiUurI2AGnzc9Yg+AWNgREIbu+AUWxKzB7TRKyRPJfrMDy01koz49DwPwg3MnYA/Pp65FapcTXy04wWRKLnz/7l5WCluJIVgeX41RaNr6+OgrHJXuRXl6JzF1zYRKkJe6eKtxeH4DorHo0FMXCx3wNHhZEwlrhhnO5P/E1xg1zNz5D16eIgcvQkT9rF9/0xdzQdBTsUGBmxA+kbzCDG2sMKItvYkdoPL6zBvL8KcF4UtWInDAb2B39hJw9M2G6/imqlIWIdVLA4dIzHOqz356i5Owy2G9/jNLGciSutsHah3UojrSCyfKTSMv+irdHHeETyxoXnR+w33k9Hmn1ghuueMLc0QNWiklYcbVc9fnuKsBOhSmO1bQgMdgG+z5onTPv+oRjDkuwL70clZm7MJ99pvl7cm6ZLXY8LkVjeSLW2IQgOTeK7Ws3XMwvQ9pWc5i4nUHujywcXGSPk0VZ2DtzOjY8rYKy8DJcFEsQW1GEKEsF3M/m4mdhDDwsNjJbp2Oj2TL2nBIlN0OxPb4MLfeCYbf3Q5/3sqgwXue9bm+5h1U2e/GhWf1aKrLlrZMyJkLyl5cRl3/7w3WYZrocO8IPIXgh+/DEvMZplxlYHf8Bp10tsDmlFinrpmDm8lAcPrQSi/lBIPOorvyb3uKosxkcw9Q9mUGG5D8+wnv+89bdQ9H37/jOKa1Gc083vkS6wP9aKVI3O2PPmw5Juq8u7MRqb3d4LWU9PO9beC+Qf7SDD+Jb+IM2JAYuwpYd8/F36EfVqeDWBLgpAvC4rX9ZCUyykbB3voAaNlvjFTfYHP7C+pbMZ7kH4LBaW9w9qMq8gF3B3vD0WMp6kN64lRcJO+dzqGbPdmXthaVfwm/K0JV/bawnFu97q5Z/DRrSw+BiOgVm1r7YdzsPtXEOMAlOx69vtBtxesFk7FCfFWtNWA6TgBR86rPfGnDXVwFTey94e3nBy8YMdodZ4ybSFq4X+Cvlu+w03NzP41vGTriyxof2R7DhijtMrA8g/WMc/OZ6IvYbW1ev/NtwP9gOB7RP+zdegYfVYXxRvWgcXLKabdgd+CumYwlbv7eXB+zMbBD+8Djsnc6CX9pRE+OCJVHFbD+1It7bCmFvT2DR5FCoXlYr7ixXIDDlC6JsnHFetYPx3yI/9k89MsKcMHPKDNj47kVCXivaEoNhvz8b7VrvpW69SUBrWyJW2+1HTpv6tXw7JXOdlLEQkr+8jIr8/5m9ATdfv8W7d1n4Vt+JopMuMHf1hOOcf5GibGfyn4o5G27gzdu3eJ/1DbX5/Xr+bfm47DcX1psfoFzr2DKYkPzHR0Sn/Xm6v5+Fl3sQ/JaFI5fVgbbkYJh7xaKouRtNiYH4y/O6UP5RNqz3WMZqYk8pTjo6IDLGAyZeiVCyp3tKI2AxeQteMUn0LeumSv7uV6T52h6GYOGGVKYBtn1P1mFOsJa425Kx2swLV4qa0d2UiKBJnrjB5e96EXxLurL3worJX28ZbGof+bfl4YTTYuzOVKrlX4GCxDhkVHegJucCPBV2OH13JSY7xjHlA525p7ElOhOJHgqsSJReGUojZuHvLVlo67Pf2pG+eRFWP+BL9aD65TXEf+A9fzt4XuHL8ck/Eeu9DMF+rvjvbd93Qfs7/593gjHHIQqfWn7JP2mVHfZnaX1A2x5i7fwNSFW9aKy3CGYHhHRsWRSMJGkTqvHy2k28Yz1/++WXpP3F5e8QXcrWoJZ/1h14KbxwX/WG4disydj6novYFZfq2bSubOxbzETcmY/EuHTUdNQg5wJrpNidRduDVbDfl6WSv+a91Kk3N5n8H2CN3T5ka+RflihvnZQxEZK/vAy//FGHeP9JMJk0BdOmzsbWexk4znrss6wc4WjjiejsTnR/PY1lkxSYtfmR9IFUvj4GVzMz2DguhZ1nFLLyjsPmf+wAoZY/v3DHQvE/TJ1uipmm5gi6+kP1xCBC8h8fab3rD5PJc2FvZ6fGAaH3+HeuP3HFTQG7qEJV7znvDLxYnQpcFQQfX2tMtz+B59sEPX/bqVjs6YtgDxs4732Ghs6POOE4HbOWuMDebB7W369Eh05Zp1BW9EsY6PqGuGAr2Lu5wcXaDDO1xd2Vh7OeVnAKWIVgb1/YTGONjdfHdeSvtwwufx8Fpi9aCsel9rCzskdg9Cs09HSp5V+F8vgQti/c4eNmhcW+l1DYXoBzztNhbm0Nc5M52JnehM6P0XCabgYHF1uYz1uLB7wr3W+/dRfFYdWi+XD19YWrYwhuFHf0lT9LTbwPTOYdUvd8f+WX/FmYuFPWW8Bm3y1sk+TfhY9HbWFmdxgvek8XdOHbtWDY2LrBw4ltpymTP9uKorhgWM53gb+vM5xDrqPoqx75sx78x2hHmJotwTJbMyxYex+VnbxR10/EPWW4FcLqi7s3PKwWwe9SIbo+HoX9DDuEx7O/6vdSt96cQkXHR0TYzoB9WBxCpdfSKW+dlDERkr+8jID8RelGW0MNGtr5uQBVerpYI0D9v5TuNjTUNEA1Sw+6u3/Na4iQ/Cdi2tHcLOOnXD1taG7pa7KOpka09qlivy+rvaVFJT5B2pubtU7BDxx9Zfw+7VA29+2NdzbVoanPpA40NbayT5C+dKGluW2AeXpQeYOJ8dS3vp9Pmelo79Att70F/XY/24QWNLcN4jPe0YTGvm+YOO1K9NlFHe3o0N0gwXvdgfb+M8pdJ2VUQ/KXl1GS/+iH5E+h/C6sV35lDZx8juO1AX8eSaEMZ0j+8kLy71cJSP4UCoUyfkPylxeSf79KQPKnUCiU8RuSv7yQ/PtVApI/hUKhjN+Q/OWF5N+vEpD8KRQKZfyG5C8vJP9+lYDkT6FQKOM3JH95Ifn3qwQkfwqFQhm/IfnLC8m/XyUg+VMoFMr4DclfXkj+/SoBl7+JQoFzZ88ahIMHDiDQ318WK4OCcOrkSWE5w8XB/fuF2zIQhw4eFJZDEARhKLaHhgqPPyKCAgIQFRnZu+y6kBBYzJ6tc2zXB8mf5C8RFxeHYxERBsHJ0RFODg44euTIb5lsYoIN69cLyxku+LbJ3b4ldnZwdXYWlkMQBGEoTP/5BxvZsVB0HOrPjOnTERQY2Gf5DRv+FR7bB4LkT/I3OM6OTnhw/756rfrj5+OLdes2CMsZLpzY9t1PTFRvgf7cvnULLi4uwnIIgiAMxZzZFigpKVEfefSHnyUICAgSliMXkj/J3+BwuZL8CYIg5EPyH/6Q/AUVwZBwuSY9eKBeq/6Q/AmCIEj+IxGSv6AiGBL+nT/JnyAIQj4k/+GP0cr/VWamdFX/Evslw8q8OXORlKR9r/aBs8LLCwvnLxCWM1zMmzNnUPKfy+YXlUMQBGEoZs6YIVv+27Zu/ePjEncBd4IxxWjl39PTg4fJyUi8d29Y8fLwkC3/AH9/hB86JCxnuFjh6Tko+fv6+AjLIQiCMBTz586VLf+dO3ZIvX9ROXLhLuBOMKYYrfxHKv9u2IBkVrHkJHjlSjx/9kz9aGSyedOmQcl/x/bt6kcUCoUyPLG2tJQt/z27duHmjRvqRxS5MVr5t7W14czp04iOihpWnB0dZcvfz9cX/27cKCxnuHBxGtx3/stcXYXlEARBGIo5FvK/89/Bev284yQqRy7cBdwJxhSjlT+/uGPS//6H4OBVw4rVYkvplJKc+KxYAVcmV1E5w4UVa2EPRv7WVlbCcgiCIAzFLDMz2fIP3bYNS5csFZYjF+4CuuDPiORvZ2uHa9fjhxW35W6y5e/v54c9e/cJyxku3N3dByV/L68VwnIIgiAMBb9QWnbPf/t2/PvvZmE5cuEuIPmT/A0Kl3/Kw4fqteoPyZ8gCILkPxIh+QsqgiFZvmw5yX+Y4PuW/0Rn2pQpBEGMA/jndcvm34ua5D/8IfkLKoIh4YJ6lJKiXqv+kPwHh+XixXiRkSFdqEMQxNjn5cuXcFu+XPh51obkP/wh+QsqgiFZtmwZyX+Y4Bcrvn/3Tr11FAplrOfDhw/wcHMTfp61IfkPf0j+gopgSKSe/6NH6rXqD8l/cJD8KZTxFZL/2AnJX1ARDMkyV9bzJ/kPCyR/CmV8heQ/dkLyF1QEQ8Ll//jxY/Va9YfkPzhI/hTK+ArJf+yE5C+oCIaE5D98kPwplPEVkv/YCclfUBEMCZf/E5L/sEDyp1DGV0j+Yyckf0FFMCR8uF6S//BA8qdQxldI/mMnJH9BRTAk/EY4T588Ua9Vf0j+g4PkPwbSXYY39zPwbbD3RGnKQfLTQnQqc5H8uADt6sm/S097OzrYX2VuMp4UyF2KMlZC8h87IfkLKoIhcXVxRerTp+q16g/Jf3CQ/Ec/LU83wWb6XATcrMZg7obe9SkUJhbRqKu6h//Cn6BZPV1v2p9ju0cYcrp6UHVvLw4/kbUUZQyF5D92QvIXVARD4ursQvIfJkj+o51GJK5agj13jrNG7mmUdLOeec1TnI4+hxObV2Htzot4U9sjnNYr/8q72H3gMZN/DyoehWOlqzP8d8TiQyPQWngX4ev84eO3FuGJhciPD8JMxTysic3Bj7u7cPAxk39HEe7t9oajnQvWRmWguqsGqadPIfZsKIL9QnA4+Tvbzm6UpYRhlYc7/DedQHrlYJopFEOG5D92QvIXVARD4urC5J+aql6r/pD8BwfJf3TTUx0HH/uDyGkvwwVXa4TldqG7OBLWCndcLW5A0c0gWAXdQ61omlr+tQU7YGIagcrCCMyfEownVY3ICbOB3ZFM3F4fgOisejQUxcLHfA0e1d3DKpu9+NDehYIdCsyMqEDOnpkwXf8UVcpCxDop4HDpHSItFXA/m4ufhTHwsNjIGgjp2Gi2DLEVSpTcDMX2+DL1K6CMdEj+Yyckf0FFMCQuvOdP8h8WSP6jmR6UnXOEifkyrAlZA5+FCphuToOyOAqO3jfRwmdpS8TK+dvx6ovutMysvvIvi3OASXC69H2+Kj2oyryAXcHe8PRYynr83kioS8Rqu/3I6dLI/xtOL5iMHR+7pCVaE5bDxP8qjtk443w1m9CVhf8W+bF/6pER5oSZU2bAxncvEvJapfkpIx+S/9gJyV9QEQwJl/+zZ8/Ua9Ufkv/gIPmPYrq/4Li9A45lV6KqqgpVxdcROCsId3IiYWcTiWL+FUD5aTjbR+LrV91phbl95V/xbCUmO8ahkRXdmXsaW46dxGozL1wpakZ3UyKCJnkivu4B1tjtQ3av/MuQ6KHAikQlW6oHpRGz8PfmJCZ/V1yqZ5O6srFvMZN/Zz4S49JR01GDnAvuMLE7y18BZRRC8h87IfkLKoIhIfkPHyT/0UtX1n5YuZxDee/X5y1I3WiO5Uf3wUYxC24+vnBd7IKwlw3SVwH9p2m+89fIv6arAOecp8Pc2hrmJnOw89lbnPW0glPAKgR7+8Jmmj1Ol+UgwnYG7A8/R64k/xp0foyG03QzOLjYwnzeWjz4UYSo/vLvKcOtEDvYu3vDw2oR/C4VqjaZMuIh+Y+dkPwFFcGQcPk/J/kPCyT/sRcuevtlF1Hb2oJW1tMfaNpA6WyqQ1On+gFLe3Oz1lcBPB1o7+h/wV4Hmhpbf/9rg3YlmrXKpox8SP5jJyR/QUUwJM5OziT/YYLkP/bSU3ETW3Ylg5+I10Q0jWKcIfmPnZD8BRXBkDg7OyPt+XP1WvWH5D84SP4UyvgKyX/shOQvqAiGhPf8Sf7DA8mfQhlfIfmPnZD8BRXBkEjyT0tTr1V/SP6Dg+RPoYyvkPzHTkj+gopgSJwdnUj+wwTJn0IZXyH5j52Q/AUVwZBw+aenp6vXqj8k/8FB8qdQxldI/mMnJH9BRTAkTiT/YYPkT6GMr5D8x05I/oKKYEi4/DNI/sMCyZ9CGV8h+Y+dkPwFFcGQODk6kvyHiaVLlsJEoYDp9OnEGGMGg783U/7667fw+fj8onKIscHfkycL3zsR/P38Z9o0YTn8ueCgIOHnWRuS//CH5C+oCIaEy/9FRoZ6rfpD8h8cV67dQMylWGIM4rbcDVdiY6FUKn8Ln4/PLyqHGBtwaTc2Ngrfv/64ODlh9569wnI4/HMr+jxrQ/If/pD8BRXBkDg6kPwJ48PTwxN379xR1xz94fPx+UXlEGMDLv+ent8OoCzFi72X+w8cEpYjF5L/8IfkL6gIhoTLX26lIvkTEwWS/8SC5D/xQvIXVARD4ujggJcvX6rXqj8kf2KiQPKfWJD8J15I/oKKYEgclpL8CeOD5D+xIPlPvJD8BRXBkDgy+WdmZqrXqj8kf2KiQPKfWJD8J15I/oKKYEgcli4l+RNGB8l/YkHyn3gh+QsqgiHhp/1fkfwJI4PkP7Eg+U+8jID8m/Hmwi6cy2xUPx58ur9GwXbSKiS1qSewdP5Ix/m9u3A1u1M9ZXAZKfnzgWhI/oSxQfKfWJD8J16GX/491bji9RfcY8rQW3Xaq1GYk4ui2g7p/5LiGrTz6c0/UVSmaiS0VxciJ7cIfJbuLxGwUQThvkb+LY+xd5kL7M2mYm2iVotgEBlJ+b9+9Uq9Vv0h+RMTBZL/xILkP/Ey8vJvysAB2wVYHuwDy1luOPv0FJZPD8CN6k58iXLCnM2P2Cz7Yb/AFat9FsHC7Rzy8/rJn5XU05mPaIfp40D+S0j+hNFB8p9YkPwnXkZc/u0P12Ga6XLsCD+E4IUKNv01TrvMwOr4DzjtaoHNKbVIWTcFM5eH4vChlViscMPFzKP95M/SNX7k/+b1a/Va9YfkT0wUSP4TC5L/xMuoyP+f2Rtw8/VbvHuXhW/1nSg66QJzV084zvkXKcp2Jv+pmLPhBt68fYv3Wd9Qm9+/588yXuRvT/InjA+S/8SC5D/xMvzyRx3i/SfBZNIUTJs6G1vvZeC4sxlmWTnC0cYT0dmd6P56GssmKTBr8yMo2RLK18fgamYGG8elsPOMQlbecdj8L/jXBX+tj7HLygKmbJmpMxdhS2K9+gn5GVH5v3mjXqv+jIT8o06cwuJFi+Du5i7BP9RJSUnqLdCfOwkJmPS///Uuy8s5ceqMcD2EcXHi5BnpFsse7h4SvJ4kymxU8vn4/JplLRdbSuWJ1kOMDiT/iZcRkL8o3WhrqEFD+6/K1NPFGgHq/6V0t6GhpgGqWXrQ3S2v4snNSMl/yRiT/9lzMdIHec2qVXhw/z6Sk5PR1dWl3gL96ejokBoKfLkAf3+pnPMxl4TrIYyLc+cvSvVhZVCQJPOkBw/Q2Snvlzh8Pj4/Xy4oIEAq59yFi8L1EKMDyX/iZZTkP/oZSfm/fftWvVb9GanT/scio2E2Ywbev3unXvPgwgct4stHRp8Ulk8YJ8cjT0j1Qm597x/eSJbqVdQJYfnE6EHyn3gh+QsqgiFZYm8/5uTP4R9OczMzFBcXq9cuL1++fIHZzJk4FHZYWC5h3Bw4GAbzmWYoKipS1xh5Kfr6lS03U1peVC4xupD8J15I/oKKYEi4/N+NQflztm7bjoXz56O2tla9BfpTWVmJuRYW2L5jl7A8guBsY/Vq/rx5qKmpUdcc/amursb8uXMRGrpDWB4x+pD8J15I/oKKYEjs7ezGrPw5wcGr4ezoiLY2/b+aaFYqYc/2V8jadcJyCEKb1avXSDe1am1tVdcgcVpaWuCwZCnWrAkRlkOMDUj+Ey8kf0FFMCT2dvayv1sfDflz+M+sVgYGoru7zyWXveEXBPp4ezN8hMsThAgvTy/pAr6B6hWfzuv8Cvr56JiH5D/xQvIXVARDwnvLY13+sVevS8MQ792zR70lfbNt61Y4OznhyrUbwuUJQgSvL7xXv3vXLnVN6ht+0HZ0cKR6NQ4g+U+8kPwFFcGQ8NP+79+/V69Vf0ZL/pyYS1ewaOFCXLhwQb01qkRHRcFqsSUuxV4TLkcQ+riorlfnzp5V1yhVTp9SjTdx8fJV4XLE2ILkP/FC8hdUBEPC1zEe5M85feY8ZpubI+XhQ2l77ty5gzmzZ+Ps+Rjh/AQhh9NnL2D2rFnSmBI8/Pf8FuzxmXNUr8YLJP+JF5K/oCIYEr6ODx8+qNeqP6Mtf86x41HSb61PRKvGAqDf8hOGQDO2xKmTJ+m3/OMQkv/EC8lfUBEMiZ2tLbKystRr1R9Dyv9q3E3p51azzMwGjek//0gf9hnTpwufJ4ihwOsT1avRh78H27fvFB43BoLkP/FC8hdUBENia2MzKvLnF/HxD2xdXR1BjBn4mBKi6cTIcfDAAQQGrhQeNwaC5D/xQvIXVARDYmtji+xRkv9fkyapS6ZQKBRV+FcvJP++kPxJ/gaH9/zHivw7i18hLa9BurWyJsrcZDwpaEfLlzS8+i7vBj/DnZ7aXDx/V6F+NPT0tLejQ/3/UNKUk4zUQu2b07TgS1omDL6bemqR+2xo91kY7cjbx/V4k/gU5Z0/8DbxFm7Fx6u4dQevSsVjALCC0c4L7h5omTZ8f5WAy2djkJBWiMaBvDTg8oNMdxle37mF+Js3cZuVkfw8C2UtbHpjHh7fuilN13ArWf1576lH/uM4nDt7DY9zK9kWayJz29GF0pfJ+FCtmaEHNVnJSC9WVcC276+QcOksLt5OQ6FUSCdKMhOlWyTfS0xBRu4PVmN1Q/LXheRP8jc4XP452dnqterPcMu/4eoK2BzKZYcUTXpQdW8vDj9pRHGkLTyuNKmnj2463uyA9Sp5txkeMO3Psd0jDDlDFnUXPocqMDe6Qf2YpbsYUbZuuGro3dTxBjstV6kfjKPI3MfNj9fAftsbdLQlInDyYmyIiERUJCPqJJIKRAu3Iy3UA+HZ7DnhMu0oOOmMeY5bcOxkJHa5W2DepkfQeqd+RfY6f5PWBPhOtsfOs+dw/mwU9q22xAzrCGRVvkZc1DEc3++GqQoH7Ig4hqiYZ8zDeTjnPB3z/ffj1Okj2GQ3CX/53ER5T7f8bWfqvuE6CWufa5pXHchY+z84Xm5Bd/5JuM5xxNaIk4ja6Y65czbhUUMDrnmawm13NE5GHcZObys4H32v1ehQheSvC8mf5G9wbKzHtvwr7+7Cwcdc/tawXccOUgFB2HomEzXsg16TehYnT4Vj7caLePP5LsLX+cPHby3CE4vQ0VOD1LMncDo8BP+eiMGpU2mo48eG7q+4eyJBVbw6rYV9l22reYozpy7jXGgQAkLCkSx1pbtQnByBTcGrsWf3CizQlj9f16lonI/ejDUhO3HpTS07EP1a/6aLOegouos93kth7xKC6Iyf+BofhJmKeVgT+xFdHUW4t9sbjnYuWBuVAd6R6ql4hMOBrnD13YErHxrZSjpQdHc3fJbawTUkCi+qO8Tyt7bG+iMbERi0GWcza9gebEXh3TCs9/dGwNow3C9iB2rWS3wUFgwvd19sPpGOSra+7oo0nNrCXu/q3biWrTr70lWcjGMbg7FmN1vvvH7y76nAo/BALHf2xc7YD2jU2b4etlue4uxpvh+DsSo0Fq/exGF3cAA2nnyJ2i7BPmPF9t1P1egSvhfdqEg7ia1B/mzbriKnQbWuvvO1o6h3H+egOCUMqzzc4b/pBNL5C9akpxwnFs/H4W9sGhNxkPl6pLarn1Onf/1oLYpHsKmC1YFYfFKKlmnBTfepCE7i+5+lIwfXo5PxXdShF62zX90RvTc605j8/WZtwcteD7/E1ulOuFSnethTeQZL5x5AnrQNPai+4oy/fRJ/Sb2zEMfmTcKap3Xyt12P/FtuuOOflUnsc6qanhMXzd6TWlxbYYWwXNUnvLsgAkvdYvBTmudXSP66kPxJ/gZHkn9Ojnqt+jPy8u9CwQ4FZkZUMvkvhonraWSV5SPOfz6C79WwaVYwWX4SaR/e4cq6AERn1aOhKBY+5mvwqIWJ0EoBt5NpyPn6FsccV+AKO+h3ftgH1/Up6vJZeqpwe33fZR8WRMJa4YZzuUzSMW6Yu/EZuj5FwHHJXqSXVyJz11yYBGnJn0vXUgHPK8WsjJsIXhyExBqt9X/JwN6Z07HhaRWUhZfholiC2JK7WGWzFx/aO5GzZyZM1z9FlbIQsU4KOFx6jYi5U7D6cRUas8NgZ3MUndl7YD6dSaJKia+XnWCy5BIytgnkv1iB5aezUJ4fh4D5QbhXeAsbAqKQXd+AotgVmL0mBU3pG2C+LBYVymLEh4biVsk3nFtmix2PS9FYnog1NiFIqfuEYw5LsC+9HJWZuzBfEaReCU8XvkbMxbTgx6hqzEa4jQ0O39vVb/tY+UVRsGH78WJ+GdK2msPE7Qxyf2Th4CJ7nCwu0t1nVdk6++nSu+M670V38Vm42W7Hk9JGlCeuhl3IQ9QV675naLmn2sdN6dhotgyxFUqU3AzF9vgy9etgqT8Hyynb8JFXOt4LV/wDR78ABAYEYOX2Gyjs1K0fj9pbkBhsg30fmLFFyzBRKrPOwMdMgb8sWINufyze9J4a7xfR8h3adTdX8N4U6077mQAfxWz4MMls/XctgpbOxvw1t1lPXrWavvJvR2qwAs5XmqXnVGE9/n0zYXGgEA1yt12P/NkOwFlvM5hMsmCNwf248qaaNSZYz99jEua6+MDP2w325oux47nuOQWSvy4kf5K/wbFhPcVxIf8oB/jeVH1D2HYvEIt3vMaXSFu4XuB3ZutBVeYF7Ar2hqfHUtbb80YCE1uUrTNipBu3daPk9HJ4nv+GFzudsT1d+0Sj7rK38iJh53wO1ezZrqy9sPRLQOMVN9gc/sJKYtNyD8BhdV/5Rzt4I17avDYkBs7Hjswvv9bfeAqLJoeqBMN64neWKxD44A5W2+1HTlcjTi+YjB2qJ9GasBwmvrvgoAhGuuaYytJ4agH+Dv2o2jesl+em8EfMFl35Rzv4aG3HIux8XY5XF3Zitbc7vJaawsQ7Aa316Qh3MsW0Gdbw33sb+bV34K+YjiVeXvD28oCdmQ2OZF6Gh9VhfFG9YBxcspoXqk4r4hwUWK21gbrbF4CUL1GwdzornVmoiXHBkqhitv9aEe/Nen+fCnX3WWq0zn4KuBqh81603vGFyXR7rODb62GDWTaHkV2o+55xsar2cT0ywpwwc8oM2PjuRULer5v5dH3cBhOLaFUPmPfCTQNwPb8QXwsLUfS9hm2ZoG61tuF+sB0OqE/76y7DXmWjkqmwG43fMpFwZAVmztiEZ6J7CImW5404Td1pFbw3b28LpsXDd7ovLme+wtOYNbC22YO0etUqePrKvwOv/50Em5N8b2nSiTebJ2FB5Hc0y9129h7dduNnCzSnLVijYpUCrtda0N3aCCWrHt2N35B5+wh8TGdg87OfuOa1CHvSK1BVUYzPjw/B1XI70vqVTfLXheRP8jc4XP65ubnqterP6Pb8bbD0RBk7FPeg9IQjHE98Q1GkHes5KtkBNBmrzbxwpagZ3U3sYDrJE/Fc/nbuuMqe5un5eRk+y4IQ4LoX77SvkRMse4PL3/WiJISu7L2wYiJpexiChRtS2eGOHfKerMOc4H49f9b7jSpmR9aecpxxtEfU16+/1s8O8F4KL9zn//eU4tisydj66h7W2O1DdhcTn4cCKxKlJ1EaMQt//3sBK00cEcfP9nfm4szmaFaEB0y8EqEqIgIWkzchYaug52/DetVl7CDI1nPS0QGRl4Nh7hWLouZuNCUG4i/Pm2jMT0RcejU6anIQ466A/clEbFkUjCS+vp5qvLx2Ex8qH2Lt/A1IVb1grLcIllahSgeerzSBk2oDkXt6M45Huffbvi14z+W//JK0H7n8HaJL2Sv8JX+dfZZ3V2c/bUli8u/3XrSnb8bi4AdQbe5LxN38IPX8+8+Htgeqfdyaj8S4dNR01CDnAttOu19D+faUHYLpPwdQyr3BRdz/FLyobjH5J62yw/4stfz7L9OZhT2zFuBwnnpix3vsmuWIC6IetGh5/j5q6k57uu57Uy2Yxnr+v077d+DzcWuY+iZIDS+evvLnxW7AtFm78Zavg6Wn+j4CJs1DxKd38rddajBMwdzwL+w/lp5iRM6bhA0vm5G1axYWheex5gBPB97vnAWn80W4qnXaHy3PsXWuN25oNVJ4SP66kPxJ/gbH2mosyZ8JbrolHB0cpBuq+Ea9xqfenr8t/lnkCf8g1tNx3Ivn9d2sQaCWf1ceznpawSlgFYK9fWEzzR6ny4r6yJ/pB7d8FFhwSN071USw7MnXx3VF0vUNccFWsHdzg4u1GWb2l7+VAhbLfODvshiuh16iQfsAzg6NH6MdYWq2BMtszbBg7X1UdnxEhO0M2B/OQNPHaDhNN4ODiy3M563Fg8oOFJx1hulMa9iamWDejnRWxEeccJyOWUtcYG82D+vv/8BHwXf+0bZTsdjTF8GsR+y89xlq887Ay8oRgauC4ONrjen2p1BeGo+1dmzfebvBZhHrLRZ2oCguGJbzXeDv6wznkOso7u7Ct2vBsLF1g4eTNcxNteXPdkfBWbhOnwlbti8mz9mB9Nr+21eJzuLfyL//PhPspx9FAql3F+F68CIsdPGFv7Mj1l4vRodI/l3qfRx+B3EhdrB394aH1SL4XSrkL0GVzkysm+KC2/wMuEjEorpV0YGPR21hZncYL+oFy7BXWZN2AI4zTLGQNcZsLObAPfINGjpSEaJwRKzqBJYqv5M/64HrvjeCacr+3/l/xNFF0xF8X9W77y9/sGba+xMeMJ8yGzb2tlhkYYmQuEKm6QG2nT2TukYBZ35KXytdxdex0mwSTOcuguXs6ZgbGIdv7APWU52GQw4zMHO+DZZYW2CeWyTe8Av+WEN3hqUDnBxZA97WHn7Rb9D/+lSSvy4kf5K/wbFh8v/48aN6rfoz3PL/fXrQ1tzSV95aaW9uZoeoAdJTiZtBK3D6W+/Rr0/0LquV9hbB+vnB2nYZLtW2oqVVXL6UjiY0tmofoDrQ3qF53IGmxlb2CrXS2YS6Ju3TFLyIRvQpQpSeNjS3aG9lO5qbdV9du7JZ1WPTpKsFzW39Cm9vQZ+i+qQTTXVNfcqQtX08+vaZzn4Sp6ulGf03Vzda+7hdiea+u5OlC4VHl8LnplYjShBR/eho56rUF1Zf62uh1Ly8np+sERKKh/0vb5cT0XsjmjbYdCpRU9sseB39tp09/hkXgh3J4o3vVNZDqbNveVWsR+2vQmSF5K8LyZ/kb3CsrazGkfyHmO6vuLrGEb7HX+n0MgySngrEb96F5N6zDJTfZizts7bXOLTxHEr+0KO/DxNtzVDMPzairOHXMwx/SP66kPxJ/gaHy//TRJc/hUIZNyH560LyJ/kbHGtLkj+FQhk7IfnrQvIn+RscLv/Pnz6p16o/JP8RTHcFPjzLVQ+SwtJTh0/P3qBc9tenPWiXxp8VpKsUL5M/SIMJSempRlZyOkqk7/ZFQ7v+fljW7rLXSLx7B3fvJiL58St8bZB3IFZFidzkxyjoc9HcYNKN8jeJuJOQgAQ1d9jrk650Vw/D2/IlHZnFcq7qGEI0Q/3KSGt2Eh4VDXgRBYWF5K8LyZ/kb3CsLC1J/mMxbUkIWRT66+rtzrfYs8Aft4W/t9ZN+/NQeIVliy+ObLmO5ZNCkKYpuyMd6/+3FLEtAw3t+vthWVtv+cLUeSdOnIzCkd3BsJ/tiOPvtAeR0ZOeKiTuDcdTmbPrphX3AqbDYWsUoqNUnIhJxfduzTC87eDDQ7td7PebMoNEa6hfGen5GQsft5MoHkzbyMhC8teF5E/yNziS/D9/Vq9Vf0j+Ixg98u8/BG4P6/mWaQ9f+6MQt4JMYTJvFa6oBw/qkwHlP9CwtEz+vxmWtfWWHxbvedd75X/Ts81Y4BnLet/9h+LtQtWTaJzPVF162ZV3E9F33uDergN4wuSvM6xxdwXSTm5BsP9q7LmaDfEJBSb/wHnYkdn3cvPu3mF4L+HRMRvYbIxEaFAgNkalooKfQdEpW3vI6BikpZzG6ctnsT3ID2vD2X5gL7//sLqd2kP9yvJ/K5K8zbAuQ3BpPEUKyV8Xkj/J3+BYLSb5j8kw+a/5exosnZzh6sxwsoSpwhe3G3WHwI0tf64zfG3LvWDY7f2gHmSlXwaUPwYYlvb3w7L2lz+ab8LfIhQZXwRD8eYcgkNAPOp6OvBihyO2PsnBToUpjlUW4lifYY0Po+TsMthvf4zSxnIkrrbB2od8ZJv+4T3/STBzYNvn6ysRFJnOpmqG4W1hPX9LmCw/h89sHTFus7ExtUVQdt2vIaOzvyLnOFvG7SxyfxbiopsFNj0t0B1Wt1FrqF+ZUcbaY+rG931+Ikn5FZK/LiR/kr/B4fLPy8tTr1V/SP4jGKnnvxXPmlrR2spoeomd81jPv1IwVDCTZf/ha9sSg2G/f4DT/q234D5p1a+BZdqfYo3CGXEtAw1Ly+T/m2FZdeRfGwuvhfuQeUt3KN7c9i+IcvFFXOlTbHXejTctBSr5l8XBsc+wxq2466uAqT0fxtYLXjZmsDusPQKkJrznPwfr733F9+/fJUqr+W/XNcPwqk77u57nZ0m6kPOfJQISagVlZ+Nr75DRfBApG7iekwYMRtbeRQi4zho0/YfVzVX+GupXZjqeBcLEOZ5tNUUUkr8uJH+Sv8GxXLyY5D8WM9Bp/zrBUMFvP+oMX9v2YBXs92WJ5d/5BlunWODwF5Wqe4qPY/6k9XjZPNCwtHV9TvuLhmXtK/825Ec7wWpXJhoEQ/E2MrF+P+sBzyBfuIUzmXep5f/jGYL7DGt8DOmbF2H1A2lpVL+8hnjpDof9Iz7tz7dDNQyv9nf+GvnXC8rmPX/1qJFq+S/XLLN3MQJuPtYdVrdRa6hfmWm764bJPil9rpmg/ArJXxeSP8nf4HD555P8x14G/M5fMFRwVxlu9Ru+tuvjUdjPsMORZw91h5RlMiu5HgjzSdMxf9EizJlugZVx39jUgYZ25af99Q/L2nrLBybTFsHRYSmW2lhhaUA0Xtezg7FgKF7+dTu/8M1DYYNofgs8jfxrunSGNe4uisOqRfPh6usLV8cQ3CjuRkfqGpg4Xtb6xQGTv78Cf8+1hb0d2w8ch21IrNYMwxuGW+xvX/m3Csru0C//BKVwGOTeoX7rbsJT4Y8kbvXac1j610a8YO9f19cjWDDnAFS36e9C3q6ZsI2p5Q8ogpD8dSH5k/wNjuWixSjIz1evVX9I/mMooiFw+w9f29GOji59Q8p2QlmvFHz33H9o1z+PvKF41dEZ1rgLLc38/nqq9PyMw7rQZNk9Z/3D8PYtW1YEw+r+fqhfdbpysHvpajyh0SAHDMlfF5I/yd/gLGY9P5L/RM74HlJWGGUNxutLUj7di21xPwfX2DCykPx1IfmT/A2OJP+CAvVa9YfkT6FQhjskf11I/iR/g7N44UKSP4VCGTMh+etC8if5G5zFCxfhy5cv6rXqjyHlf+XaDekDO9fCgiAIohd+XFi/fqPwuDEQJP+JF5K/oCIYkkWs5z8a8ufEXLqCM2cvEARB9OFq3E3hMWMgSP4TLyR/QUUwJFz+hYWF6rXqj6HlTxAEYQhI/hMvJH9BRTAkixYsIPkTBDGuIflPvJD8BRXBkHD5fyX5EwQxjiH5T7yQ/AUVwZAsJPkTBDHOIflPvBit/F9lZkoV2tV12bAyy8wMRV+/qteqP94rVsDaylpYDkEQxGgxGPkvX7YMNtY2wnLkYjZjhmz5b9u6FQsXLhSWIxf++rgTjClGK39ekR+lpOB+YuKwwk/7y5V/gL8/wsPChOUQBEGMFoOR/wpPT0QcPSosRy7z58rv+e/csQM7QkOF5ciFu0Du65soMVr5j1TsbW1RVFSkfqQ/wStX4vmzZ+pHFAqFMjo5cviwJHyrxYsl+P//93//p35Wf1YHB/cuO9nEROrF/y4Jt29Ly1hbWkrw/6uqqtTP6o9mW/lys83Npf/b2zX306YMFJL/MMfOxobkT6FQxlWysrIkiT64fx/fv39Hfb3W/aV/k7a2NmmZjx8/SqOM8hEFf5fysjJpfTEXLkg9frni5+ns7JSW4WdYF8ybh00bN6qfoegLyX+Yw+X/7ds39SP9IflTKJSxkrTnz6URAcuYmAebjo4OrPDykr7GlJvPnz9LPfecnBz1lMFl65YtWBsSYnSn74cakv8wx9bamuRPoVDGZW5cvw4bdgxrGETPn389sOnff7F+3TrZXxVokpaWJjU4SktL1VPkJSoyEm7Ll0tnHSjyYrTy7+7uRmJiIm7fujWs8NNQxcXF6rXqT4CfHw7s3y8shyAIYjQIDgqSxMp783LCv4PnZzx5w0FU3u/gV+9bLloku8FxK57/NHAOYi9fFpYnB+4C7gRjitHKP1P9Uz9/P/9hhf/UT678fVasgJODo7AcgiCI0cDP108aryRk9erf9uSvx8XBfOZMeHutEJYlF2tLK7g4O//2wr0XGRkw/ecfeLh7CMuRC3cBd4IxxWjlzwd0cHJ0xLPn6cMK/9CUyJR/oL8/oqJOCMshCIIYLR4/SYXD0qV6v8Pn1wjMMjdH/K3bwjIGQ+qzNPh4+0jf4Q/U4MjPy2MNDTNciLkoLGMwcBfQID8kf4OycP58kj9BEOOeB0kPpXFL4q5dUx+xfuXzp09Sj//ixcvCZYcCb3A4LnVA2KFD6rX8ys+fP6VrA44dOy5cdrCQ/En+BkeSv8zBKkj+BEGMZW7dSpCuyH+mdWFyeXk55syejeORUcJl/gSpwbFwIa5euaJeG6BUKmFna4udO3cJlxkKJH+Sv8FZwOTPf/MqJyR/giDGOpcux8KM9fI/ffyIxsZG2FhZY8+evcJ5DcGt26oGR2pqqvSbfj6CYMiaNcJ5hwrJn+RvcPjV/iT/P+P+g2Tpe0SCMAaepj4Xfg4GS8qjJ8LyDcG+ffsx09RUGoY3MCBQOI8hiYyMktbHR/Fb5uqKm/G3hPNpSEl5LNwnA0HyJ/kbHC5/ub9ZJfnrwi/84VfiLl60iCAmPLyuG+p0NpfkcH52LGbPlnrk/LS86HlDw9fHzzj8bn18SGFfHx/hPhkIkj/J3+DMn0vy/xN4L2jS//6n3kMUysQOHwp348Z/hZ+FweKw1MHo7lTH8+HDB3i4uQn3yUCQ/En+BofLX+7wmCR/XUj+FGMKyf/PQ/KXF5K/oCIYknlz55L8/wCSP8WYQvL/85D85YXkL6gIhoTLn9+xSk5I/rqQ/CnGFJL/n4fkLy8kf0FFMCR8zGmS/9Ah+VOMKST/Pw/JX15I/oKKYEgk+ZeXq9eqPyR/XUj+FGMKyf/PQ/KXF5K/oCIYkrkWJP8/geRPMaaQ/P88JH95IfkLKoIh4fL/8eOHeq36Q/LXheRPMaaQ/P88JH95IfkLKoIh4TefIPkPHZL/YNKN8jeJuJOQgAQ1d5I/oLJH/bSh05SD5KeF6FQ/pPx5SP5/HpK/vJD8BRXBkHD5V1RUqNeqPyR/XUj+g0kr7gVMh8PWKERHqTgRk4rv3eqnDZyuT6EwsYhGg/ox5c9D8v/zkPzlheQvqAiGhN/tiuQ/dEj+gwmTf+A87Mjs1xdv+4ibEdeQ3QJ05CfgeOw7Nmsh7oWtQ4C3H9aHJaKoowc1T8/gzOWz2B4cjB2xmXgTtwurAjbg1MtadNU8xenoczixeRXW7ryIN7U9v+TfXYG0k1sQ7L8ae65mo6EH6C5LQXiwBzx9N+FkeiWG6+TDRAvJ/89D8pcXkr+gIhgSLn9+72k5IfnrQvIfTHjPfxLMHHzg5+srERSZzqZ2oeiiL5btjsGhZW6IzmlF1a31CIzKQkNDEa6sMEdISguKo6xg4haDgrI0bDNXwONMLn5kHYCl/QkUF0XCWuGOq8UNKLoZBKuge6iV5B+J3LPLYL/9MUoby5G42gZrH1YjfYMZ3GIroCy+iR2h8Sgn+8sKyf/PQ/KXF5K/oCIYEn4zCpL/0CH5Dya85z8H6+99le4kySmtblb1ursKEL1EgUX736KdPeypykTMzmD4uHvA0VQBnwQlk78dXM7yXnoNLrrYI7q4mxV5Ez5Wh/CpMAqO3jfRwstqS8TK+duRmcXlH4E4XwVM7b3g7eUFLxsz2B3ORU16GFxMp8DM2hf7buexLaPICcn/z0PylxeSv6AiGBIu/0qS/5Ah+Q8mA5z2Z2lI2w1XzzXwc96Eh9UtSA42g3dsEZq7m3A/cBK8bqrk73apns3N5b8EJ0pZs6FX/pGws4kEbw/0lJ+Gs30kCnO5/I/h4eZFWP2gkS3Xg+qX1xD/oQYFiXHIqO5ATc4FeCrscK5a2gzKb0Ly//OQ/OWF5C+oCIbEYtYskv8fQPIfTJj8/RX4e64t7O3sVDhsw738h9jquBI3y7pQnfwvXNYmIO+MJ2wcA7AmyBt+1tOw5FQZin4jfxvFLLj5+MJ1sQvCXjb0fudfWxSHVYvmw9WXPecYghvFnSiPD2Hrd4ePmxUW+15C4TBddDjRQvL/85D85YXkL6gIhkSSf2Wleq36Q/LXheQ/jGlvRnOH+v/fpLs4EvbLLqK2tQWtQpF3oaW5rd+Ffe1QNtMPAQcTkv+fh+QvLyR/QUUwJLPNZ6Gqqkq9Vv0h+etC8h8b6am4iS27kqFUP6YMT0j+fx6Sv7yQ/AUVwZDMMjcn+f8BJH+KMYXk/+ch+csLyV9QEQwJl391tbyrnUj+upD8KcYUkv+fh+QvLyR/QUUwJLPMzEj+fwDJn2JMIfn/eUj+8kLyF1QEQ8LlX0PyHzIkf4oxheT/5yH5ywvJX1ARDIn5TJL/n0DypxhTSP5/HpK/vJD8BRXBkEjyr6lRr1V/SP66kPwpxhSS/5+H5C8vJH9BRTAk5jNnkvz/AC5/E4VCGiiJGB5+VlQIpxMjz949e0j+fxiSv7yQ/AUVwZBw+dfW1qrXqj8kf11Sn6XBxtoa8+fOJYaJhfPnIzgoSBaODg7SzapE5RB/ztS//0ZExDHhZ2GwkPzF+0UEyZ/kb3DMZswg+RNjmi1btqhr4O8Td+0arl+/KSyHGFuQ/MX7RQTJn+RvcLj86+rq1GvVH5I/MRqQ/CcmJH/xfhFB8if5G5yZJH9ijEPyn5iQ/MX7RQTJn+RvcLj86+v5ndJ+H5I/MRqQ/CcmJH/xfhFB8if5G5yZpqYkf2JMQ/KfmJD8xftFBMmf5G9wuPwbSP7EGIbkPzEh+Yv3iwiSP8nf4MyYPp3kT4xpSP4TE5K/eL+IIPmT/A2OJP+GBvVa9YfkT4wGJP+JCclfvF9EkPxJ/gaH5E+MdUj+ExOSv3i/iCD5k/wNDpd/Y2Ojeq36Q/InRgOS/8SE5C/eLyJI/iR/g2P6zz8kf2JMQ/KfmJD8xftFBMmf5G9wuPybmprUa9Ufkj8xGpD8JyYkf/F+EUHyJ/kbnOnTpkGpVKrXqj8kf2I0IPlPTEj+4v0iguRP8jc4JH9irBEbexUb12/A5k2bJHy8fdQ18Pe5k5CAVcGrpOU2/bsJ20O3C9dBjD4kf/F+EUHyJ/nL5srVOGzbuu23TJsyBc0y5e/r7c3wEZZDEIZi86bN8PTwQE1NjbrmDS2nT55CUGCQcB2EYbjKjjOi448cSP7i/SKC5E/yl01gQCDsbG2xc8dOvfD7c8uWv48PAvz8heUQhCHZsnkL/H190draqq59g8u9u3cR4E91dTixtbaB94oVwuOPHEj+4v0iguRP8pfNyqAgnD9/AV8Ki/TCT/s3Nzer16o/QYGBuHYtTlgOQRia9IyX2B4aiu7ubnUNlJf3795h3759wjIJw3H27Dn4eHsLjz9yIPmL94sIkj/JXzZy5f/P1Kkkf2LMkpT8EOFhYfi///s/dS3Un+LiYmzdshX5BYXC8gjDQfIfWkj+8kLyF1QEOQxG/i0tLeq16g/JnxgNeJ27GHNRXQsHTm1tLTZu2ICPn/KE5RCGheQ/tJD85YXkL6gIcpArf37BH8mfGOtER59AclKSuibqpq2tDf9u3Ij3H7KFyxOGh+Q/tJD85YXkL6gIchiM/OVeVEXyJ0aTff/tk77P7x9+TQD/SR+/RkC0HDE8kPyHFpK/vJD8BRVBDiR/YqLBv8ffunmL9L2+JvxagPCwcCQnpwiXIYYPkv/QQvKXF5K/oCLIYTDy56dM5cTQ8n/1+i3uP0jCk6fPCEIWjx49QWRkJDLY5+Pd+/e4euUa4uKuC+cdD8Rdvyn8bIwHSP5DC8lfXkj+googB7ny57/zHy35P0/LwM/KSnXpFIrx5cWLlyj48lVC9BkZy5D8hxaSv7yQ/AUVQQ4kfwpl7IfLP/fjZ3z6nC/8jIxlSP5DC8lfXkj+googh/Ei/4qKCvT09BCEUZKR8UL6aeLnvALhZ2QsQ/IfWkj+8kLyF1QEOZD8CWLs86fyv51wFxv/3YxNm7cOG/9u2oKMF5k66yb5Dy0kf3kh+QsqghxI/gQx9vlT+e/avRd79+7Dy5eZw4affyAuXb6is26S/9BC8pcXkr+gIsiB5E8QY58/lf/uPf/hYUqK+hM6PDly5CjOX7iIvPwvfdZN8h9aSP7yQvIXVAQ5jBf5//jxQxqkhSCMkfRxJP/+FyWS/IcWkr+8kPwFFUEOJH+CGPuQ/En+ciD5k/xlQ/IniLGPIeSfnPxQ+JWCoTh8mORvyJD85YXkL6gIciD5E8TYh+RP8pcDyZ/kL5vxIv/y8nJ0dXURhFGSnk7yN7aQ/OWF5C+oCHIYafnz3wGLxi7Xx/Ub8Wxb05CTk0sQ456qqmqh4PVB8if5y4HkT/KXzUjLP4kdgOrq6gZFTU0Namtrhc8RxHgj9dlzoeD1QfIn+cuB5E/yl81Iy/8p68lTKMachymPUFo2uK+xSP4kfzmQ/En+shlp+T95mio8cBCEsZCUnIJvxSVCyQ8EyZ/kLweSP8lfNgPJPzz8MEwUCvbBWyrB/+/o6FCvVX/WrF4tNRb4cvPnzsXcOXN6yyX5E8aORv4dnZ2ySUvPIPkbWUj+8kLyF1QEOQwk/9u3EyThx9+8iY8fP6KsrEy9xt+nqalJWubd27eYbGKCkDUhveWS/Aljh+Q/OEj+4v0iguRP8peNvtP+ly/HSr12Pq7+YMMPBvwMwGqGdpkkf8LYIfkPDpK/eL+IIPmT/GXzu+/8+ZCd9ra2UCqV6jXKy/59++G23E3nYEXyJ4yd0ZI//6WNaAAhQxFO8jdoSP7yQvIXVAQ5yLngb+uWrfD28kInOwjJyaWLF2FjZYWs7Fydsrj8RQcOgjAWNPJv7+iQTVp6OsnfyELylxeSv6AiyEGO/PMLChHg54/Nmzap1zpwHj16hLkWFniZ+UpYFsmfMHa4/Iu+Mfm3M7HLJC1tYsp/9Zq1OHgoXPicBpK/eL+IIPmT/GUjR/4cfuDh64k8fly9Zt1kZ2XB3MwMKSmPhWVwSP6EsUPyV5H88BEWW1pjW+gOnee0IfmL94sIkj/JXzZy5c959+4DFi1YiFvx8eq1/0pJSQksZs3C9es3hctqIPkTxg7JXwXv8XP5HzgYhrT0FzrPayD5i/eLCJI/yV82g5E/5zlbZjaT/IuMDPUWQBqy1HLRYpw4cVK4jDZPnjwVDmJCEMaCRv5tbe2yef48bULJn9+zw8V1Oev1b5fkn57xss/z2pD8xftFBMmf5C+bwcqfk5j4ALPMzFCQn88OTG1Y7uqK3bv3COftD8mfMHZI/umIij6Jjf9ukp7jZwD4LYu1n9eG5C/eLyJI/iR/2QxF/hzey+djAPB1BwYGIvPVG1nE37qNku/fB0XRt28oLi4WPkcQowVv+Irk/jtI/unw9vHDq9evped27NwtbVvi/aQ+PHr8VJqX5N/3mK0Pkj/JXzZDkX/Bl69ISLiLjx8/4f37D5Kcv8mkoKBAOF0fX9j6vn79KnyOIEaDN2/fIj+/QCj332Hs8r94KRY+vv7ST4cfP34CK2tbuLgsg7MW9kscsNTBSZqf5K973B4Ikj/JXzZDlf+LFy/VW0ChGF9+/vyJV69eo+JnpSSxwaCRf2trm2yePZs48uc/73uQlCRsGGmoqa2Fg6OzNL+ToxPJXyYkf5K/bIYq/4yMF8LRywjCGPjx4wdeZr5Gccl34Yh8+jBm+cffSpB69i0tLcKGkYaamhpJ/ny8EB9vn9/IvxMlmYm4e+cO7iWmICP3B1rUz6DtO14nXMK5mNtIK2xED5/WXYrMhFu4FX8LtxPuI/VDGVqlmQXpqUXus3fqB+ooc5H8uADt6ofDFZK/vJD8BRVBDiR/ghg8hpB/S0urbFINIf+kZGEv21CEHz7yW/lv2RqKS5djhftFm+pe+b+WIf8GXPM0hdvuaJyMOoyd3lZwPvoebd35OOU8B85bInAqcic8LeZg86MGoDUOHgobbI2IRFTEIWxxnI75uzLFDYCON9hpuUr9QJWeqnv4L/wJmtWPhyskf3kh+QsqghxI/gQxeEj+uvxO/g+SHkrf43Oxi/aLNoOW/worhOV2SY+6CyKw1C0GP5U34Dl1JZJqpP4+OnLicCL5O7qZ/L3MQvFGfYfynrITsJ93AJ9Ui0vpKk7GsY3BWLN7N3zmrUJPTSrOnTiFwyEbcfHZLew+kILiJ9E4n9mkmj/vJqLvFqG7Ig2ntgQhYPVuXMtuYHWlBqlnT+B0eAg2XcxCWUoYVnm4w3/TCaRXqrZroJD85YXkL6gIciD5E8TgIfnr8jv57/1vP44cjRAOYtSfqqrqwcnfYxLmuvjAz9sN9uaLseM56+FDiewz3jBXTMIclxAciH2Dau5b3vOftAxHrscj/nIUdrqZYW5o2q+vCro+4ZjDEuxLL0dl5i7MVwShuzgSNorlOJWWja/vtsPENAKVOYfgEBCPup4OvNjhiK1P83FumS12PC5FY3ki1tiEIKWuGFFWCridTEPOl2RsNFuG2AolSm6GYnu8/tukk/zlheQvqAhyIPkTxODplX/xd6G89MF7wF+LitHc3CKb1GfPx73814Ssw917icJ90p9By99rEfakV6CqohifHx+Cq+V2pClb0ahk3fvuRnzLvI2jK0xhtukZWntP+0ch+sQ5xD36hAbtTnjjFXhYHcaXbvZ/Vy4OLlktyd/e+QJq+KSCHZL8a7q/IMrFF3GlT7HVeTfeNNyBv2I6lnh5wdvLA3ZmNjiSXYgoW2fE8AVRj4wwJ8ycMgM2vnuRkDfglQZSSP7yQvIXVAQ5DFX+fFAO0UU/BGEMlJeX48XLVyR/LX4n/3PnYxAYFCz8KWN/KiurhnzaHy3PsXWuN66l7YLFgnDkqa/M63i/ExaO51Hd3Pe0v07aHmLt/A1I5W5ufYL1FsEq+btfAb+xea/80Y3vZz3gGeQLt/BcdLWnY8uiYCQ1spl6qvHy2k184D1/O3dc5Qt25iMxLh01HTXIueAOE7uzbOLAIfnLC8lfUBHkQPIniMFD8tfld/LnX114eK7A27fvhcLXZtDy91BghqWDdCx0tLWHX/QbNDEBpx1wgJnpfNjZW2POHDdEvVFd8KdX/ujCt2vBsLF1g4eTNcxNB5I/c/zPWOksQnQhP03QjaK4YFjOd4G/rzOcQ66juENL/j1luBVix8rxhofVIvhdKmQTBw7JX15I/oKKIAeSP0EMHj7CH//85H78LBS8PjTyVzKpy2UiyJ/vr4hjkdi6bbvOTxn78/Nn5SDk/5v0tKGhVsnUPMi0t6BF6yJA2eliDbY2PRfztSvR3Kn+X09I/vJC8hdUBDmQ/Ali8Gh6/vzCPVHPVR/GLP/HT1Lh5OwijdopurBRQ0XFT8PJf5yG5C8vJH9BRZDDkOWf/kJ4ACAIY6CsrEyS/7diPsa/WPIDwQX5NPU5yn9UCEUvYqLIn/PfvgMIDz8ifZ3BJZ94/4EOV6/GSbf7JfmT/H8Xkr+gIsiB5E8Qg+dP5J9w5x7evc+SzgDcTriL+/eTkPzwER4/fopPnz6jsbEJSmVzH1JTn00Y+fPXzX/vz8V/+sw5LFnqKA3+o83mLdtwNOI4yZ/k/9uQ/AUVQQ4kf4IYPFz+GS8yJfmLvrPWx527ifiQlS2JnIuSS51fO5Cd8xHP0zKkxgG/q93DlEfS/QNqa+sMIn8+nr5oKF1DIVf+HC748xdicPLUabbcUakhxfenCC9PL5K/TEj+JH/ZkPwJYvD8ifzv3rsvyb7/Zyov/4sEF7ymQfD6zTupscDvhGcI+YsGHTIUg5H/rdt34OTsiuPHoyT50/38dUPyl5cRln8z3lzYhXOZ/AedQ0v31yjYTlqFpDb1BJaO4hREh67Hhh2nkFYh79rU0ZJ/WnqGsPVPEMZAaalh5S8iv6CwtzHAhcqX6S9WuYw1+XP43f0cnVwQFn6E5C8IyV9eRlb+PdW44vUX3GPKVHeJ4mmvRmFOLopq+Y9H21FTXIwaaXCJZvwsKkMjc3l7dSFycovAZ+n+EgEbRRDua+Tf/RWnnafB9WACYkMsMC34nvoJ/RlN+YsOAARhDHzvlf/ghunlyJV/f/jnjjcIRM/9jrEof342g1/UdyjsMMlfEJK/vIyu/JsycMB2AZYH+8BylhvOs9b6WdfpCLxejc4vUXCx2Iy7j/fDfoErVvssgoXbOeTn9ZN/4w34/s8JZ4q70f5oA0wXHFA/oT8kf4IYeUZD/n/CWJQ/h8ufD/tL8tcNyV9eRlX+7Q/XYZrpcuwIP4TghQq4X/qBolMuMAuOx4dTrpi76T7urpuCmctDcfjQSixWuOFi5tE+8u/5eRFuChdc+NGDjmebYTZ3j+qJ34TkTxAjD8lfl6HI/2b8bemahowXL4XPc0j+4v0iguQ/CvL/Z/YG3Hz9Fu/eZeFbfQ+6v56E60xXeDnMwaaHtUhZNxVzNtzAm7dv8T7rG2rz+/X8W5Oxdso87HvbjqorXvh7eYz6Cf0h+ROGpwWVPyoF02XSUomyyhbxcxOEXvl/K9EZivd3kPx14b9yEE3nkPzF+0UEyX+45Y86xPtPgsmkKZg2dTa23svAcWczzLJyhKONJ6KzO6Xv8M+4sHnMNuORElC+PgZXMzPYOC6FnWcUsvKOw+Z/wVoX/Cnx5rAjTP8xg9kMe/z3rFo9XX9GTf5p6cKhS4dGM96cPoAbhS3S46b0KIQlVvSbZyDaUHJyGfxuNAieMyx1l9zheuaH8DmJxh/4VtYofk4fvcv9xLUgX8SUtOnOo4fq8KmYvKdE+NxQaP28HwuXnEW78i3OHLiOwmY+XYmMyENI/KHatrqnhxGw4w5KW/lzzXh7LgzxX1tVZZSfgt2CQ/gqPTcxKfmukj8f4U8keH2Q/AcHyV+8X0SQ/Idd/qJ0o62hBg3tWmM693ShU/ui/e42NNQwSUmz9KC7W2tedbrblGgdxCDUE0P+DYj3tMCWzGbpcV2MA+YfKJD+b678gvdv81Gh5PPV48ePGvwo+IySBva48Se+5JUg77gDvK/Worq8AvW8vKZq/KhWNSQaKn6gpuU35TRX40v2R5TW8+e0aK5Cwbu3yKtQbVd1jBtcThehhB3cyhvV8ygr8OltFr43NKMiaS2sAm/iSwUTeV0F24YKFHwqYXWC9aQL3uNt3k8o1WUrKwrwIbeMPae9XD1K2PqKJdm2oPrrB7z7rFmGbXNFA+pL85FX3qRat5rKQ3/DZBeXv/Z6WlBV/hON0jxK1pOvRjP7v7nqC7LZeqX91H8/SNNa8DHUFNbnqtFeHw8viy3IVO+zGId5OJjP5V+Fq27m+GfaIkQU8MeNuOUzH6GvVPuJN2LOWpph5yfVezARIfnrQvI3bEj+8jIG5D86mTDy95gCt+hEJD1Iwp3NFpjL5V+ZiD0+axC6yQH/WB7F558xcFWYwy1wO65kPsN/S+ywcstauM1UwONqKW6tXIbjn1vw47In/vG/hermz4hwD8G9Yv3l7LG1xsrNwbA290VcmabXXYXE3T4I2bYJTlMtEcHKrY5xgckcb/y7LQg21juRXvsJYVZm8Ny6CdvOPETi1rkwMffC9stvURHjzP5fjqDtV5CWsBu+a0Kx2WEqrI9+RtWjdZg5zRHB3kux5uJb3OtdLhUH/1Zgd3Ej0rfNwnT7YKyy/wvT1z9Ge/UFOCks4Bm8Dstn2yEiR93LZmjkX5motZ4j6bjg6YTj+a1oLToNzxUXUZi2B/bWQdgSbIXZPnEoq9TaDx804q7GyTmTsS2XiZvJ33PKcpxITGLvyx1ssbBQyb/8AlztjyIz2g6LDnxmjYr+8m9DXuhkzIlmDQj1Nk40tOUvGo5XHyT/wUHyF+8XESR/kr9sxoz83RWYv2ov9u/bjz2uk2Ah9fybUfoyHqePbsB8hTsSyph0LI/gS2sHmtK2YMmGJ6xn24bCY0tYz78BP68FwvvkJ9zZ6AGn5Rtx//Mp+KyKR7W+cpIDMNnUF7t270bIHAXcb/36+kBZmon400excZ4CnrcbpZ6/Y/R3tLY3IWmNDULTcnHcajLsdtxAVjUr60Uolqx7LPW2qy84MwF/YfOyspRlyLx5GhEb5sHE/SYSvKbAL/lX7/3XclUI4/IvSITXZC8k8bMLDffgrvBk8j8PF6vjKG5tw9ejtnC7/Gs7e3v+fdaTgOI4X7gczkVBtDv8r5XiYYAJZvruxJ7dazBP4YZbpb/2g6as9tZ87FTMQEQV+5/LXzEPa/buZ+/LHiyfNIvJvwXfT9nDet97lH48BmuL3chu7i9/9vqPm8Nk2+DveDde4Bf68e+pSf6/IPkbNiR/eSH5CyqCHIYq/+fP04Tjlg+Netz0sMCWl0rpce0FB8zfn4+m9H8x23IfHmbGI2iGu0pWS0+gjM3TmLYVtiHJaGhrwacwa6y4Uo+W0ssI8FqLkDVn8PiwL9as80XwtQr95SQHYvryy/j8hf9+ugRVTeptasrAJnMr7E9+hfjAGfCIb0BVzHLYRXxFC9veu8F22PO6GW3KUmREO8HE8gwaX2yD7ZqHbJvaUXXeBY4nylhZSmRsNGeyfMjEHAgz9zjc8lDA626D+rWzbehdrlIl//xEJl033Klnz9fdgMskf7RVnYOLfTTb5laURNrCNaa+d/mfXP47v/Rbzy3UVyVglWMI1i8Pws3KJiQHToP7JSYd9loLi6vRVPVrP2jKamsrw6Fpf+O/ola27pvwstiMTGmf1Emn/Q98KsSxRSZY7BeElYH+sFWYYtvratzynsfkr3r/ON/3/Y2p+wZ/x7vxQjGT/5Wrcbj/IFki5dFj6SLY0rJyofC1GS3583sIiBoyhiIs/DDJ34Ah+csLyV9QEeQwVuQf7zkH2zLV8o9xxIKD+VDmHMXiSfOwYoUT/mE99tulMVi29JRKVg2vEOZoBfegYKy0M8eKa0yGLSU4v1wBW9bbrXu1h/XyvRBb2qq/nMZXOGQzCzZeAfDz2oZbxUx6fLoyF0cXTsICT2+4TFXA4zaT/0V3TF+4HCu8nWDjcRLZtY+xx9EFK1wsMGddClqKL8NzxmIEnniB8guucDxZzspqRs6RRfhrnid8nKayHvltVDzZgpmKWbCznAe/80VQ9i6XIp3231PcgLQds2Ay0x5LZv0Dx+PZTP4XmPy5qFXyX6Yt/zAm/91FOuupZ/s1ec1kmATdQTWbrzHzIOxmWWFFgC9WbLuF4p9a+6GXRiR5KbCMvd62unismLO1V/4XHefhYOoRWFkeR1GLav6y80sw89/nSPRT4K+FjnB2XIFjL2pw343ts/uNWuVOLEq+l+LR46fSGP2aoXjff8iWbtCjGpv/Afs/hX1O0qUb2GjfpIfkPzhI/uL9IoLkT/KXzdiQP4P/Brr3Mf89tPr/xjrUNrZLv4/mj3unSzSjoaGF/dVatqUFzer/m5vVIufoLaeV9ZKrUKvUnsZpQm1tk9a28b8tqKtt6F1HW1MNKqrYPJrHDTWobtDMq57GaKytQ6P261LWobL6V0+5dzn19nFa6mtQqzkTwR9rlu2zrzi/HvddTxMyQpdgXdKvhkJbC2vEVNZBqX7cdz+oqL/rhske99XPa+1Dab2sMdVv3yn777eGFHhPclWdudCePoHg8uf3pteIrv9QvNoNAn5mgP+WPSnpoXTnvrjrN0n+g4DkL94vIkj+JH/ZjBn5E4an5RsSIy/jHWv0CJ8fCOVHxJ1JFj8nhx8pOHslt7eBMRHpL38R/HPSv0HA79zHb+dL8pcPyV+8X0SQ/En+shmq/J89SxPetIQgjIGSku+/lX9/+OdGc4ZgMMsZApL/+AvJX15I/oKKIAeSP0EMnqHIfzQh+Y+/kPzlheQvqAhyGKr8U5n8NWOVE4Sxwa/2J/n3heRv2JD85YXkL6gIciD5E8TgIfnrQvI3bEj+8kLyF1QEOZD8CWLwkPx1IfkbNiR/eSH5CyqCHIYu/+c6Y5YThLHw7VvxOJP/XmnsAdEvFwxFWBjJ35Ah+csLyV9QEeRA8ieIwUPy14Xkb9iQ/OWF5C+oCHIg+RNyqaurR0HBF7x9914a5+EJk9+TJ0+R8ugJUlIeS6PbJSU/xIOkh9LANvcSH0iD29y9lyj95fDR70RonlfNf18SFS+Dl8dHynvIyuZD6D56/ES13qep0o11srJyUFJSKo2cJ9rm4YLkrwvJ37Ah+csLyV9QEeTwJ/IXjVtOjF8qq2qQ+/GTdD0HH7qWy/xBkkriGkHz516/eScNVsMHrRHBB7CRw58sw//no+e9ePlKanzcTrgjbV/i/SSpwcAbClzOL15movBrEeobGoWveagUkfx1IPkbNiR/eSH5CyqCHEj+xkUT6yHzgWaepj7Dw5RHUu+a97S53Lk40zNeIif304Bi1kzjB3gOH71OAx+8RgNfB4fXFQ2iujQQ2stpytIuX3u9mm3pv60c3kB48vRZb+OFN2T4mQneOOANgx983H3BfvodJH9dSP6GDclfXkj+googB5L/xKW6ppb10t9Kvfik5BRJfLcT7jLxP+8jeG1Z9he7tswHK/A/hUubn32QC99e7QaDdkNB0zjQfr1v332QGgK8UXD/QZJUBl8nn7+xSSncpxpI/rqQ/A0bkr+8kPwFFUEOQ5Y/6zlq36mMGF1qmOh5T5b35h+obyTDZc9P0Wukpy0+/r+24EdD7vrgDZTFltYIWbuese4XISrW9IPPe/LUGWFZ/dFuHGg3DPh+4V9n8M8FbyTx/ce/Qnj06Ak+ffqMJt4gUO/voqJvJP9+kPwNG5K/vJD8BRVBDkOV/+MnT/vIhxhZyst/sAbYcyTzHv29+9Kpe96T1Uj+WtwN/LtpCzZt3orNW7b1YcvWUB327T8oCVH0fo8GD1MeY82atejq6kJHZ2cvmt+Uc9lohtrlv7s/e+48Io5FSkIXlSeHgRoE/CwJ/6zwBgH/aoRvm9QoePyU5K8Fyd+wIfnLC8lfUBHkMFT584PgvcT70kHw2fPnKP9RgSalkhgmvhQWSle6a05T879Z2bm9stf06PmBl8uLS//gwUPSe5P67JnE06cq+JXyEqwBx28xy+E9Zy450fs9GgxF/kcjjhtcxpqzBHyfcjT7+mXma3zIyhk/8t/N5M8+r5p9NhwcIvkbNCR/eSH5CyqCHIYifw38YMgPhJp7lvOLqn5dTPUSPyqoQTBYGpuaUPTtm3RNBT+FzxtZCXfuSqeY+39Pz/9qZM97rNqn7bdu287e3+d95KktTo08NSPW2S9xkN7HsdL7HyvyF6F9hoAjmmesQfIffyH5ywvJX1AR5PAn8uey4fADIYd/6DVievP2vVpcqqvIVRdTpbL5CtDQ2CgUn7FRU1vLhJvFevT8N/KqC/L4/uKnk0W9eo3sNftbW/b9Gbz8l0r3meflisobacay/McjJP/xF5K/vJD8BRVBDn8ifxGa06RcIrxXpN0g4BdT8d+Jqy6mut97loA3Cj5kZUtfHfCrrCcS/PflRd9KkPnqtSR13gjiv53np+45/HfqGrGLRK/p1fN9qk/2/SH5E9qQ/MdfSP7yQvIXVAQ5GFr+AzFQg0DTKOAS5I0B3vPlF6/xrxF4b1g1qttTvHr9BsUl39HQ2CSU7GhRU1vHpFyItPQM6Tt5fqqeXwfBz3ZwufOGDt9+fiZEI3jt164RvUbyGtGL9uFgIPkT2pD8x19I/vJC8hdUBDmMlPxFiM4S9G8YaODy5ELgMtUM2KIaBjZJaijw3jRvLPCetarB8ET6RQL/3Tb//vx5WrokaD4k7MvMV1JPnDc4+KA2fDrfF3w+Pj8/E8GFzUeO4+vkv5HnDRO+Hr4+vl6N2Pm28J+l8Yu/BpI7h0/jr42/zqH25gcDyZ/QhuQ//kLylxeSv6AiyGE05a8P7YaBpnGgaSAMJFgNmuc18/AL5fh36FzQ/KI2/pM43pjgsuOP+XR+9oHP1395bbTXoY3meZHch1Pw+iD5E9rsYvLnPwnVvN/DwaGwcJK/AUPylxeSv6AiyGGsyl8uXKyahoJ2Y0G7waANPzDpo//82uVxtIU+GlKXC8mf0IbkP/5C8pcXkr+gIshhvMufEEPyJ7Qh+Y+/kPzlheQvqAhyIPlPTMaT/Pn1Ffy6Cm2iT5xCYFDwoOS/bv1G9ZC8v8rh12jwMzWi9RoTJP/xF5K/vJD8BRVBDiT/icl4kT//6oSPLshZtswN69ZtwFpG8Ko1uHYtTrb8MzNfY2XwavU9ANYjIDCot9y09BfCdRsTJP/xF5K/vJD8BRVBDiT/8Q3/dQMX3L//bsYWPm6/evx+Pi0jI0O2/Pn8XLqbtO4F4OTsitDtO4XrNST82ooTJ0/D0ckFZ5golEoluru7pW2XK//m5hYJfsviu3cT4eK6HDt37ZFubKS5VkO0bmOB5D/+QvKXF5K/oCLIgeQ/vuG/WtD0cA8fOYr09AzW003Hixcv0dHRIVv+ubkfpZ9Gcq7fuAkbW3upzLPnRq5ucFHv2LkbrsvcwMdK6GTbPBj5v3//AUErV0nwU/6aX2jwxgXJn+Q/3kLylxeSv6AiyIHkPzHg4w2s8PaV7tBXUlIi7Dnrkz+XZ21dvXTw5j3wI0eP9d64hjNSv2zg6+HjK3CBBwevZo2S3N/Kv7S0DHv/24dly91xOfZqr/T5do+VCxhHGy7/u/cSe8+QDAeHDpH8DRmSv7yQ/AUVQQ4k/4kDlx6/pz0/XR994iQaGhpkyz8l5RHc3D2l0/184CPNGAZcnqPxk0beU4+9ck0S+n/79ks3ier/GhoaGhFz8ZLUWDl8JEIas0Ez7gJJvy8k//EXkr+8kPwFFUEOJP+JBx/EaM/efXB2WcYO+PfQ1t4+oPw/fvwkXSDn6xcgXSk/1k6V88GX+FkILviLly6jqUkpvYYnT1Lh7uElNVb4BX2j3VgZ65D8x19I/vJC8hdUBDmQ/CcmXID8NsCrVocgIHAl3r3/0Ef+lZVVCAs/IjUQzp2P6R3dcCyeKuevhd8/n3+lwc9O8Kv6eWOFD7NM3+vLg+Q//kLylxeSv6AiyIHkP7HhQrwWd4NJ0wO7du3Bt2/FiGOPeU96/4FD0lkCLk/NqfKx3Gvmr4XfX+Hipdgx3VgZi5D8x19I/vJC8hdUBDmQ/I0DLstjx6NgaWWD9es3SrdWHq+9Zi57vs10il8+JP/xF5K/vJD8BRVBDoOVPz/oqu6M95oYh/A7GfKf1L16/Vb6mWDmqzfC+TTwGyKJ6gExviD5j7+Q/OWF5C+oCHIYrPz57WvfvH2Lku/fiXHK16IifPr0Wfhcf7gwRPXAUNyMv40DB8OIYcbWbgl7L+9DySQ9XBwk+Rs0JH95IfkLKoIcBit/vkxFxU/09PQQRkBS0kPpYD5cXwv4+Ppj3/6D0sBCxPBx42Y8qmtqhdI2FCR/w4bkLy8kf0FFkAPJn9AHlz+/LmC45M9v3sN/ny+SCTG+IPkbNiR/eSH5CyqCHEj+hD5I/oRcSP6GDclfXkj+googh6HI/8ePCmn4WGLi84DkT8iE5G/YkPzlheQvqAhyIPkT+iD5E3Ih+Rs2JH95IfkLKoIchiL/ciZ/zU1jiInNg6Rkkj8hC5K/YUPylxeSv6AiyIHkT+hjZOSfBaWymRjnHDwURvI3YEj+8kLyF1QEOQxJ/uU/pHutE4yWSvyobBE/N+y0oLK8Ei3C5wwDyZ+QC8nfsCH5ywvJX1AR5DAU+Zcx+WtuE2tI2sqf4niIB3s9Pth9Kw9KwTyDov07Ti3zw81G7emVuBbkh5jvqjvd/RntyDswH0vPqW43+3uU+FHyA438/8prWOkXg+/t/eeRQw2OTDXBf98rcNpmAcKLDPFaxJD8CbmQ/A0bkr+8kPwFFUEOY0b+LW+xc8Y/WHv3Cyp/fEB83DNUMDG21BThw/t8/GxRzVf/8ydqfn7B5+9N7HErqgtz8am8sW9ZjKbKQuR/z0eUwwpcY/L/tVwDvn94h5KGapRXKlXzK1nvvbqZ/d+vvIafqKj9iS9535mwW1CR9w7ZpXy96vW0fsYOUytcqFE91t3WSjQ0fMfngh9oYo+bK5OxbnEg4gsr0cgaJu/ffZd67R2tNSjKeo/8yhZVufU/8bOxEWUFBfihVJXV0VqNL2y7VfNUI/xvBXZ/70TlWUvM2pmnmmcYIPmPHepKS1BaJ35OQ13pN3z/zTzDBcnfsCH5ywvJX1AR5DAk+ZeV994e1lAo09bAxOocKrWmNaSFwmKaPVYF22PKtPV4XFeDGGcFZi0PxI7YV8jYbQfboC1YZWUOv2u/tqkhfS+W2gVh69rlMFe441q99nLpCGPi3PX6PDxdovClpQ3fTrnDO+arTnnVMc4wMV+OoO2Xce+AFWZ5bMXmrefwXqnexuqTmDd5K3Kbxdt60W0KFvtsQGigFay3p+Jb4lbMV5jDO/Qy3pYdwlTFLhQ3pCN01jQsDQ7G0r+mYcOjelRfcISJhQdWrV2GObZHkdNShcTdPgjZtglOUy0R8fmH9Bp2F3eg9XMo/p4d3fvaDQ2/i55Ryb/uFc4cuI78BsFzMqnLPIODcfloEDw3ZBpzsG++PU6X1CPzzEFcz2tUTe+3vSXR1lh4IB+N2suOECR/w4bkLy8kf0FFkMNYkX/DXS+YuCegoXdaExI9J8P7QRP7vxH33BTwSvzBJG6JowVtaG96iCATU/jt3IM9q+fAxO2Wejkl0rbY4d/HbLnWrzi+xEstf/Vy7VUqcRaV45KXKyLzinDa0w9XS5J1yqu+4AzrI1/Q2t6CvGNW+NtmJ25k1ajXw8SbtwMmM46iaqBtXbYE0SVsnY1JCLHaxrb5BULt1uFxI1u+UiX/gkRP/O2VhEZWXsNdN5h4JqL6nBNsjpegtbUIEbbLEVvPGkelmYg/fRQb5yngeft7r/zbqyMxSxHau02GZmTk/wFNSuXYoPo6vOdtQUbdr2n1P/Lw+lUOSvi0hgoUl1RJ02vKS1DewOepxveSit75q66vwIItL1CrftzUUIaPrzKR872O/V+O4tJa1fTaMpSUN7D/G1D26R0+FKnKbaoqQUlFCT5mF6JKXUZ91lbMsDyDMrauGyvmYesLVhZ/rv/2lp6E1cxQZEnbNbKQ/A0bkr+8kPwFFUEOQ5F/aWkZ2traDUpL/mHM/Ws9XtSrHivrq3DHQwH3hAb2uB43nCYh4HE5LrgsxclSNk8jk/U0N1z+zKT05SuKq5TqspqY/K2xLrkRbc2fEW7that11b+Wa6tUifNbO35c8YHrtu3wCrqOn4Lyqs67wPGE5rU243tGNJwVVjhTptrGttKDmP73fyhqaUSiYFtjXK1xrLAVbXV3sNJ2N9tmJn+bEDxsYMv+VMk//54HTJbfQT0rr+6GE/7yf4IqJv8l0Wy9LSWIsnHBxcoMbDK3wv7kV4gPnAGPeLX82Wto+74fU//er95Gw2Ps8q9K3YLZ0+zY58QOU6atRfLX61jpegTZDSW46D4V/tcrUJ99GO6rb/eW0Vf+ZUjYsQKrt2yEw9TFCE89C0/HI8htaET+CTesOP8ZqTttYRPwL1ZamsMn9ht+sPffxGwZArddxGv1dpRHzcHfm9+j/nfyb8zBtsmzEFmufjyCkPwNG5K/vJD8BRVBDmNF/m1tdXhx0ApTpsyHnc1CLAi8jM/PdsBCMRNL7GfBdOlxZLMDXwyT+ClJvk3IPGgLCysvBPp6ITS+pLeshsxDcLJ0w8rgICwxYz1/Jv9fy1VK35fvKWb/V8bDX/E/rLxdLSyv6oIrHE+WS8893u0EVy9XzJm9Hil1qvW0NSRhhcIVt1mDpT5NsK1OCsxy8oSvoxW8TuVKMr/sMQNWASeQ8T2cyX83iuvTsHOWAub29rD4Zykis5pZo8MZS06w9XL527riYnUuji6chAWe3nCZqoAH6/lrXkNDohtM3O+rtmcYMG751yLBfTK87vGeejVuL1PAM+ErYv09EZ0Vjw3uDli+/g6yo70QfP1Hbxn9e/61RWmIOxGO9XNZA/HmF1zxcUTY+4+IdPNB7Nf7CDCZDt/tO7Fz1RyYLLuOH2edYBX2CQ3q5ZuUjcgJVWBmeDn7/zfyV1YgwkyBrdmN6scjB8nfsCH5ywvJX1AR5DAU+X//XorW1rbhoakWlVVNvx4316OqRvtxy6//Gc11VfhZo+wzTaKpgR082V/N/NrLaf3frGxGs2Y6f9ynvBat55pQ9aMKDb2POfW4u9yEyaFB9bjPtlbhwjJHnCqpRVVds3oapwFVVar5m5s101pQV1WLxt55fq2X3yddNa0RtTWN0rZLz0nTG/DQaxKW3a5Xz2N4SP4KuMVXs/+rcM1xEvwfVuPbRT94rVmFNScfIsxnFdb6BCG29FcZfeRf9wwbzS3x34MMXPefAffr1SiPD4LT6hC4BcahrPY+AqctQ0xOHj7n5aHwRx2TvzMcoop7y+MU7Z+KKbu/sDr9O/kX4b+//8Z/X38tO1KQ/A0bkr+8kPwFFUEOQ5F/Scl3tLS0EoymnGs486BU8Fw9Ms6cRGp1/+mGpBzJp68gq1H0nGEwOvnXJsBPYYJFDo5w8jqCRymhmM3P6NjNgumSCLxrUKLh6xksV1gh7EMVXuyaCxPPi/jW+KuMmgQfmJgshCP7XK4Iv4pD/KyNhxecp/KeP2tIVN3HmskKBN3i1wnUImO/DWZbeSLAxxNbrxfixzkm/+iSX9vEy7znCRPnm6jiDRIfBSYvdGCfey8cfXKzz/Y+r7gDd4Ub7tb+WnakIPkbNiR/eSH5CyqCHEj+hD6MTv4iGqtRUanuaatpaOAX6vH/G1CvJX4x/GxWLSunUXUqv/Y5Qu1DkFj1a56G6h8oq9KUqZ5Pm+oEuJm4485vpF7zwAuTXeJ7LxQcSUj+hg3JX15I/oKKIIehyL+4uEQ6HU1MfEj+hqfhSwKOX3yFGsFzA9OArCuncL9Y/3f5JQ9O4fJ7TSNiZCH5GzYkf3kh+QsqghyGIv9vTP6iG3sQE4+RkP+79x/Q2KQkxjkHDpL8DRmSv7yQ/AUVQQ4kf0IfJH9CLiR/w4bkLy8kf0FFkMOQ5P+tWDjCFzHxuP8gieRPyILkb9iQ/OWF5C+oCHIYivyLvn0TfudHTDxI/oRcSP6GDclfXkj+googB5I/oQ+SPyEXkr9hQ/KXF5K/oCLIYSjyf/3mLQq/FhFGwO2EOyR/QhYkf8OG5C8vJH9BRZDDYOX/Oa8Aaekv8DT1OZ48fUZMcDJfvRlW+Xv7+OHqtTipQdmfV68H4o0Oma9eD4qXma+EvHg5EJk6ZLx4KSQ9YyBeCElLz5DN87R0IaLPtoo0HVKfPRfCP9Ningl58jS1D75+ASR/A4bkLy8kf0FFkMNg5a8hL/+L9CEnJj4fP+UNm/wjo07Azz8QQStXyWJl8GrZBK9aMyhWrQ6Rzeo1awfFmpB1QkLWrmfwv9rwabqsXTfQ9A2yWbd+o5D1G/4dFBs2btKBl5P6LE2qM9rv8Z/K397WDoEBATh18qRRsTo4GM6DPLaT/En+shmq/AnCkPAGBj/DQBgevm9HEn52UPu9/VP5nz17Hv9u/NcoOXX6jHCfDATJn+QvG5I/MRYo+PJVOJ0Y//yp/An5kPxJ/rIh+RMEMZyQ/EcOkj/JXzYkf4IghhOS/8hB8if5y4bkTxDEcELyHzlI/iR/2ZD8CYIYTkj+IwfJn+QvG5I/QRDDCcl/5CD5k/xlQ/InCGI4IfmPHCR/kr9sSP4EQQwnJP+Rg+RP8pcNyZ8giOGE5D9ykPxJ/rKRI//sW2FYd+AWPrD/819cws6N0UjO588V4mXsHqwK3oPYTNXwr9m3w7H+oGre/uUQBGF8kPxHDpI/yV82v5d/IV4dccIkhyN4UVCEz4nbsHCqPy5+Ys8VZODg0mn4Z8okLDmYgXw+71EX/O1wGOlsXnF5BEEYEyT/kYPkT/KXjVz5m8zxx4GI44jYvgwzp6jkn5+6H/YzAnDsgDP+tt2P1AKSP0EQfSH5jxwkf5K/bGTLf7od/FYGY6XHIkz5m8u/EE/22mDassNIvBEKa4U19j4pIPkTBNEHkv/IQfIn+ctmyKf9c55gj+UkmC1eAoelS7BwmgJWu1NI/gRB9IHkP3KQ/En+spElfyb0vxyO4iUTet79UCyaFoALyXthM80bZ96r5kkPd8BflnvwNtodfykmYcrfU2AefBkfhWUSBGEskPxHDpI/yV82v5c/pxD5vT35QuTl8yv7NX/7T9c8JgiCIPmPJCR/kr9s5MmfIAhiaJD8Rw6SP8lfNquCV8H0n3/g7uZGEARhcKZPmwY/Pz/h8YcwLCR/kr9s7j9IxslTpwmCIIYNfpwRHX8Iw0LyJ/kTBEEQRgbJn+RPEARBGBkkf5I/QRAEYWSQ/En+BEEQhJFB8jcy+U82McG2rdsIgiAII4a7gORvJPJvbW3FiehoHIuIIAiCIIwY7gLuBGOK0cqfQqFQKBRjDcmfQqFQKBQjC8mfQqFQKBQjC8mfQqFQKBQjC8mfQqFQKMOUbuSf8oLrkbfo5A/bnuE/h81IqvuEM17zMH/eXMz3PIGcftfaKV+fwDo/H/hsvo6iLj6lB9UPtmNnQg3QkYbQuVMw29wC7lEfUa8zbwNSQwNxPK8NBWd34OwnaSJ6flzHvqgPqMu6iv3bt2PHf7HIUkpPGWVI/hQKhUIZpnTiTagt/rILxasOoDlpC+Yo3HD+aRCm2N9GE2scFF0IxfGHKUhIr0ZPTy1eJD5GzsUTeFTbhif+9thb2IOe8nhstp0Ot+gKdBbvwGKXeJTXtEvl9523HZkHXbBYYYr1bzvR+XY73HZ9YHN1oShiBTalNuDtudN4wRobdZd9sfpem2ozjTAkfwqFQqEMU5j8t/ti87Zg7MqsQ+LOUGxd4YOLtV9xxc8MkxR/YZ7PaWRXJyJoWSRKiqOwYk0KW64LBZc9YKLwxYPKYlzZtBsPEjdi5YkKtD1dienT3eBlrcC0deno0J63hq+zCx82L8VGJn90fcKhFazh0foRh3x34b10+gHoqXmG/7w24l5lj2qCEYbkT6FQKJRhCpe/Pw6nn8TaTbsQujcZtwN9cO7+ERx+0sKeb0fBnr8wJ6Icz9a5Yf06T2zOaEbRy0yUMS83XrCG9ZbNsLHyxkqHv2EyLxzPcp4ho7gbaL2EeX9txYuMX/PanGhgZWrJHz0oiQ7A5ugdCD5SwJ5hUypSsNt7PeIK+ZkD4w3Jn0KhUCjDFJX8jxaW4bT9P9j8rAGJTP4XPl2D1z9TYblkCRaY2uJwdhc6326GyaRQZHV24WOEBxz9guG71Acn81Xf2Xek/avq+b8NxfzpS+BkoYB1xEdk68yrLX8m+6qL8FK44AxvIfRU47qbAjNdVmLN6nU4+7ZDmscYQ/KnUCgUyqikXanEgPrt7GRNh4HSjtZ21vvXRO+8FFFI/hQKhUKhGFlI/hQKhUKhGFlI/hQKhUKhGFlI/hQKhUKhGFlI/hQKhUKhGFlI/hQKhUKhGFmE8icIgiAIYmKjHer2UygUCoViZCH5UygUCoViVAH+P9BAfqFoQq4RAAAAAElFTkSuQmCC;" vertex="1" parent="1">
          <mxGeometry x="200" y="340" width="511" height="349" as="geometry" />
        </mxCell>
        <mxCell id="rfn4uJVFMArDV8O9V4xS-2" value="" style="rounded=0;whiteSpace=wrap;html=1;" vertex="1" parent="1">
          <mxGeometry x="260" y="340" width="120" height="60" as="geometry" />
        </mxCell>
        <mxCell id="rfn4uJVFMArDV8O9V4xS-3" value="" style="rounded=0;whiteSpace=wrap;html=1;" vertex="1" parent="1">
          <mxGeometry x="160" y="140" width="400" height="140" as="geometry" />
        </mxCell>
      </root>
    </mxGraphModel>
  </diagram>
</mxfile>
